<svg width="90" height="89" viewBox="0 0 90 89" fill="none" xmlns="http://www.w3.org/2000/svg">
<path d="M57.8275 28.2532L51.539 6.99654C50.1137 2.17887 43.507 1.63688 41.3157 6.15787L31.5628 26.2792C31.4733 26.4639 31.2799 26.5752 31.0753 26.5597L9.16678 24.908C4.14968 24.5298 1.30044 30.5292 4.76396 34.1787L20.5296 50.7903C20.6646 50.9327 20.704 51.1408 20.6302 51.3226L11.2208 74.4985C9.22892 79.4045 14.6401 84.0156 19.168 81.2707L41.4657 67.7532C41.6568 67.6374 41.9015 67.6624 42.0652 67.8144L59.503 84.0113C63.3464 87.5812 69.5303 84.2564 68.672 79.0816L64.6473 54.816C64.6156 54.6253 64.6967 54.4334 64.8556 54.3233L84.9072 40.4169C89.1638 37.4648 87.3517 30.8024 82.1863 30.413L58.2693 28.6099C58.0623 28.5943 57.8864 28.4523 57.8275 28.2532Z" fill="url(#paint0_linear)" stroke="#353B4F" stroke-width="5"/>
<defs>
<linearGradient id="paint0_linear" x1="48.0762" y1="0.362796" x2="41.6051" y2="86.1975" gradientUnits="userSpaceOnUse">
<stop stop-color="#FFDC23"/>
<stop offset="1" stop-color="#FFA723"/>
</linearGradient>
</defs>
</svg>
