<svg width="163" height="170" viewBox="0 0 163 170" fill="none" xmlns="http://www.w3.org/2000/svg">
<path d="M99.125 38.5735L74.9599 6.74631C69.1599 -0.892735 56.9972 2.60362 56.1393 12.1566L52.5276 52.373C52.3256 54.6218 50.7698 56.5187 48.604 57.1568L10.6628 68.3353C1.44913 71.0499 0.415437 83.6872 9.06547 87.8631L46.4781 105.924C48.4217 106.862 49.637 108.851 49.5854 111.009L48.5065 156.143C48.2649 166.249 61.0424 170.826 67.2723 162.865L96.3276 125.738C97.8423 123.803 100.457 123.107 102.733 124.034L142.183 140.101C151.458 143.878 160.253 133.763 155.224 125.103L132.894 86.6525C131.826 84.8138 131.914 82.5245 133.119 80.7728L158.206 44.3117C163.811 36.1646 156.074 25.4931 146.588 28.288L105.06 40.5234C102.869 41.169 100.506 40.3929 99.125 38.5735Z" fill="url(#paint0_linear)" stroke="#353B4F" stroke-width="5"/>
<defs>
<linearGradient id="paint0_linear" x1="62.7291" y1="-8.85795" x2="113.035" y2="161.886" gradientUnits="userSpaceOnUse">
<stop stop-color="#FFDC23"/>
<stop offset="1" stop-color="#FFA723"/>
</linearGradient>
</defs>
</svg>
